<svg width="644" height="202" viewBox="0 0 644 202" fill="none" xmlns="http://www.w3.org/2000/svg">
<g clip-path="url(#clip0_18_24611)">
<path fill-rule="evenodd" clip-rule="evenodd" d="M612.179 67.7703L612.16 60.7553L612.11 41.1313L585.47 41.2013L585.539 67.8403L612.179 67.7703ZM585.699 128.81L585.629 102.167L612.269 102.098L612.323 122.828L612.338 128.74L585.699 128.81Z" fill="#7399C6"/>
<path fill-rule="evenodd" clip-rule="evenodd" d="M373.519 100.062C366.836 106.091 358.719 111.251 347.929 111.279C331.953 111.321 318.977 97.717 318.929 79.109C318.878 59.708 331.021 46.51 347.76 46.466C357.956 46.439 364.846 49.747 371.591 54.961L382.195 39.249C373.303 31.765 362.77 26.729 346.552 26.772C316.95 26.849 297.461 48.534 297.541 79.165C297.621 109.795 317.959 131.377 346.826 131.301C363.888 131.257 376.932 123.375 384.747 115.98L373.519 100.062ZM514.742 55.654C514.727 50.001 519.796 45.14 528.606 45.117C543.498 45.078 555.544 54.743 555.544 54.743L566.146 39.033C561.421 35.465 547.419 26.248 528.972 26.296C507.761 26.352 493.623 40.072 493.665 55.645C493.769 95.758 548.486 82.15 548.536 101.143C548.549 106.467 542.771 111.965 533.491 111.99C516.893 112.033 502.076 100.015 502.076 100.015L491.259 116.045C496.356 120.073 511.966 130.87 532.73 130.816C555.157 130.757 569.595 115.53 569.555 100.426C569.456 62.508 514.791 74.784 514.742 55.654ZM205.513 97.007C205.538 106.446 195.17 114.02 184.496 114.048C173.198 114.078 166.8 108.506 166.776 99.209C166.758 92.296 172.878 85.436 184.785 85.405L205.482 85.351L205.513 97.007ZM189.086 27.371C167.586 27.427 151.582 40.551 151.582 40.551L162.343 56.406C162.343 56.406 174.293 46.484 188.958 46.446C200.403 46.416 205.041 51.979 205.067 62.22L205.082 67.768L182.359 67.827C160.264 67.885 146.572 80.6 146.621 99.041C146.67 117.907 160.036 131.975 182.609 131.916C191.815 131.892 200.829 127.736 205.239 121.874L205.259 129.804L226.385 129.749L226.211 63.429C226.148 39.44 213.657 27.307 189.086 27.371ZM31.089 0.258L0 0.339L0.34 130.34L22.008 130.284L21.755 33.254L58.747 130.187L71.936 130.153L108.422 33.027L108.675 130.057L130.377 130L130.001 0L98.915 0.081L65.246 93.43L31.089 0.258ZM431.587 131.081C441.548 131.054 450.591 127.054 455.325 120.672L455.347 129.151L476.072 129.097L475.808 28.298L455.083 28.352L455.25 92.411C455.281 103.758 444.728 112.221 434.577 112.248C425.298 112.272 415.721 106.145 415.686 92.514L415.518 28.456L394.792 28.51L394.97 96.338C395.024 117.117 409.073 131.139 431.587 131.081ZM297.69 29.166C293.753 27.937 288.853 26.92 283.135 26.936C259.32 26.998 245.038 40.584 245.099 63.757L245.271 129.7L265.998 129.646L265.829 65.024C265.795 52.208 273.679 46.162 285.101 46.132C287.834 46.125 291.196 46.639 293.947 47.472L297.69 29.166Z" fill="white"/>
<path fill-rule="evenodd" clip-rule="evenodd" d="M15.4709 183.317H9.96087V192.713H15.5299C18.6609 192.713 22.4889 191.842 22.4889 187.84C22.4889 184.419 19.7049 183.317 15.4709 183.317ZM14.8329 167.542H9.96087V176.009H15.2969C19.0089 176.009 21.1549 174.443 21.1549 171.544C21.1549 168.759 19.0089 167.542 14.8329 167.542ZM16.7459 200.716H0.390869V159.653H16.7459C23.1269 159.653 30.7249 161.916 30.7249 170.21C30.7249 174.733 27.9979 177.749 23.9959 179.083V179.199C28.6949 180.011 32.4069 183.375 32.4069 188.769C32.4069 197.701 24.5759 200.716 16.7459 200.716Z" fill="white"/>
<path fill-rule="evenodd" clip-rule="evenodd" d="M59.4924 183.317V200.716H49.5744V183.317L34.1464 159.653H46.1524L54.9104 174.849L63.6684 159.653H75.2674L59.4924 183.317Z" fill="white"/>
<path fill-rule="evenodd" clip-rule="evenodd" d="M113.258 201.76C100.151 201.76 90.697 193.06 90.697 180.126C90.697 166.961 100.441 158.551 112.969 158.551C119.406 158.551 125.38 160.697 128.803 164.003L122.538 171.137C120.624 168.933 117.319 167.309 113.317 167.309C106.357 167.309 101.252 172.761 101.252 180.126C101.252 187.666 105.719 193.06 113.78 193.06C116.1 193.06 118.246 192.712 119.987 191.958V184.477H112.156V176.473H129.092V198.222C125.09 200.31 119.58 201.76 113.258 201.76Z" fill="white"/>
<path fill-rule="evenodd" clip-rule="evenodd" d="M158.209 167.483C151.248 167.483 146.492 172.819 146.492 180.011C146.492 187.435 151.307 192.77 158.209 192.77C165.11 192.77 169.982 187.435 169.982 180.011C169.982 172.819 165.168 167.483 158.209 167.483ZM158.209 201.818C145.391 201.818 135.879 193.003 135.879 180.011C135.879 166.845 145.391 158.551 158.209 158.551C171.084 158.551 180.596 166.845 180.596 180.011C180.596 193.003 171.084 201.818 158.209 201.818Z" fill="white"/>
<path fill-rule="evenodd" clip-rule="evenodd" d="M187.731 200.716V159.653H197.707V192.074H213.598V200.716H187.731Z" fill="white"/>
<path fill-rule="evenodd" clip-rule="evenodd" d="M233.434 168.12H228.504V192.132H233.202C240.278 192.132 246.831 189.232 246.831 180.068C246.831 170.847 240.278 168.12 233.434 168.12ZM234.129 200.716H218.819V159.652H233.666C245.324 159.652 257.155 164.524 257.155 180.068C257.155 194.51 245.44 200.716 234.129 200.716Z" fill="white"/>
<path fill-rule="evenodd" clip-rule="evenodd" d="M301.525 200.716L301.756 171.658H301.583L290.911 200.716H283.952L273.569 171.658H273.395L273.628 200.716H264.29V159.653H278.383L287.721 185.985H287.954L296.885 159.653H311.211V200.716H301.525Z" fill="white"/>
<path fill-rule="evenodd" clip-rule="evenodd" d="M337.078 170.615L331.858 184.709H342.182L337.078 170.615ZM348.098 200.717L344.908 192.655H329.015L326 200.717H315.213L332.438 159.653H342.065L359.117 200.717H348.098Z" fill="white"/>
<path fill-rule="evenodd" clip-rule="evenodd" d="M389.219 200.716L372.69 173.862H372.516L372.747 200.716H363.12V159.653H374.43L390.902 186.448H391.075L390.843 159.653H400.471V200.716H389.219Z" fill="white"/>
<path fill-rule="evenodd" clip-rule="evenodd" d="M446.291 170.325C444.608 168.179 441.535 166.787 438.982 166.787C436.431 166.787 433.241 167.657 433.241 170.905C433.241 173.632 435.677 174.501 439.562 175.72C445.131 177.517 452.322 179.895 452.322 188.073C452.322 197.527 444.725 201.761 436.604 201.761C430.747 201.761 424.831 199.615 421.235 195.845L427.731 189.233C429.703 191.726 433.357 193.583 436.604 193.583C439.621 193.583 442.289 192.423 442.289 189.117C442.289 185.985 439.157 184.999 433.763 183.259C428.543 181.577 423.266 178.909 423.266 171.485C423.266 162.38 431.501 158.609 439.157 158.609C443.797 158.609 449.017 160.349 452.612 163.655L446.291 170.325Z" fill="white"/>
<path fill-rule="evenodd" clip-rule="evenodd" d="M476.277 170.615L471.057 184.709H481.381L476.277 170.615ZM487.297 200.717L484.107 192.655H468.215L465.199 200.717H454.412L471.637 159.653H481.264L498.316 200.717H487.297Z" fill="white"/>
<path fill-rule="evenodd" clip-rule="evenodd" d="M521.458 201.818C508.814 201.818 499.361 193.003 499.361 180.127C499.361 166.962 509.105 158.551 521.633 158.551C527.374 158.551 533.58 160.639 537.002 164.584L530.274 171.311C528.418 168.759 525.112 167.542 521.98 167.542C515.078 167.542 510.148 172.878 510.148 180.127C510.148 187.609 514.963 192.713 521.807 192.713C525.692 192.713 528.767 190.972 530.506 188.537L537.408 195.033C533.812 199.209 528.36 201.818 521.458 201.818Z" fill="white"/>
<path fill-rule="evenodd" clip-rule="evenodd" d="M568.148 200.716V183.548H552.14V200.716H542.223V159.653H552.14V175.196H568.148V159.653H578.066V200.716H568.148Z" fill="white"/>
<path fill-rule="evenodd" clip-rule="evenodd" d="M608.806 170.325C607.123 168.179 604.05 166.787 601.497 166.787C598.946 166.787 595.756 167.657 595.756 170.905C595.756 173.632 598.192 174.501 602.077 175.72C607.646 177.517 614.837 179.895 614.837 188.073C614.837 197.527 607.24 201.761 599.119 201.761C593.262 201.761 587.346 199.615 583.75 195.845L590.246 189.233C592.218 191.726 595.871 193.583 599.119 193.583C602.136 193.583 604.804 192.423 604.804 189.117C604.804 185.985 601.672 184.999 596.278 183.259C591.058 181.577 585.781 178.909 585.781 171.485C585.781 162.38 594.016 158.609 601.672 158.609C606.312 158.609 611.532 160.349 615.127 163.655L608.806 170.325Z" fill="white"/>
<path fill-rule="evenodd" clip-rule="evenodd" d="M634.42 164.899H635.234C636.186 164.899 636.956 164.583 636.956 163.811C636.956 163.133 636.459 162.679 635.371 162.679C634.917 162.679 634.601 162.724 634.42 162.768V164.899ZM634.375 169.11H632.653V161.684C633.332 161.547 634.283 161.456 635.508 161.456C636.912 161.456 637.543 161.684 638.089 162.002C638.494 162.314 638.812 162.905 638.812 163.63C638.812 164.446 638.177 165.08 637.274 165.349V165.441C637.996 165.714 638.405 166.256 638.631 167.252C638.859 168.383 638.992 168.837 639.176 169.11H637.317C637.093 168.837 636.956 168.159 636.728 167.295C636.595 166.481 636.142 166.12 635.191 166.12H634.375V169.11ZM629.8 165.212C629.8 168.52 632.248 171.145 635.596 171.145C638.859 171.145 641.256 168.52 641.256 165.26C641.256 161.953 638.859 159.284 635.552 159.284C632.248 159.284 629.8 161.953 629.8 165.212ZM643.158 165.212C643.158 169.427 639.855 172.731 635.552 172.731C631.297 172.731 627.9 169.427 627.9 165.212C627.9 161.094 631.297 157.787 635.552 157.787C639.855 157.787 643.158 161.094 643.158 165.212Z" fill="white"/>
</g>
<defs>
<clipPath id="clip0_18_24611">
<rect width="644" height="202" fill="white"/>
</clipPath>
</defs>
</svg>
