<svg width="16" height="16" viewBox="0 0 16 16" fill="none" xmlns="http://www.w3.org/2000/svg">
<path d="M5.33301 2.6665H10.667V1.3335H12V2.6665H12.667C13.4002 2.66668 14 3.26726 14 4.00049V13.3335C14 14.0667 13.4002 14.6663 12.667 14.6665H3.33301C2.59316 14.6663 2 14.0667 2 13.3335L2.00684 4.00049C2.00684 3.26726 2.59316 2.66668 3.33301 2.6665H4V1.3335H5.33301V2.6665ZM3.33301 13.3335H12.667V6.6665H3.33301V13.3335ZM6 8.6665H4.66699V7.3335H6V8.6665ZM8.66699 7.3335V8.6665H7.33301V7.3335H8.66699ZM11.333 8.6665H10V7.3335H11.333V8.6665ZM3.33301 5.3335H12.667V4.00049H3.33301V5.3335Z" fill="#9FB1BD"/>
</svg>
